:SAMPLES-PER-SECOND 30
:FULLY-SPECIFIED
:DEGREES
110
root  -2.45831 40.9834 1.7102 105.867 -89.7493 -104.358
RightUpLeg  2.49521 -0.765119 -1.25466
RightLeg  -3.07203 -17.1396 0.704047
RightFoot  0.223912 -0.311571 3.0617
RightToes  -3.10678e-008 1.75238e-005 3.56266e-009
Spine  -3.77089 -0.108632 -0.56405
Spine1  4.48027 -0.549536 2.01664
HEad  -10.6851 -3.6838 0.948213
LeftShoulder1  1.75735 -2.56579 -22.6355
LeftArm  7.22482 -75.3183 -79.0706
LeftForeArm  87.0828 -8.36755 0.894615
LeftHand  -1.56854 -4.47631 18.6028
RightShoulder  4.92088 9.52378 31.8649
RightArm  -35.2368 -40.2515 45.6835
RightForeArm  83.2081 2.84258 0.0893482
RightHand  0.345484 5.30419 3.43273
LeftUpLeg  1.42192 0.638584 1.09914
LeftLeg  -1.87559 14.2646 -1.29994
LeftFoot  -0.575676 0.0832017 -0.875647
LeftToes  4.76857e-008 1.46588e-008 1.31384e-009
111
root  -2.5276 40.9805 1.74386 156.3 -89.4202 -154.736
RightUpLeg  2.57033 -0.717274 -1.27697
RightLeg  -3.21608 -16.7765 0.646814
RightFoot  0.198892 -0.327375 3.25198
RightToes  -3.10678e-008 1.75238e-005 3.56266e-009
Spine  -3.79374 -0.34144 -0.349269
Spine1  4.64573 -0.731039 1.67685
HEad  -10.9739 -2.63577 1.11469
LeftShoulder1  1.31258 -1.25997 -21.1792
LeftArm  16.0453 -82.1512 -86.2458
LeftForeArm  84.455 -10.1092 1.38724
LeftHand  -1.40867 -4.34525 16.9704
RightShoulder  5.02761 9.95059 31.4502
RightArm  -36.5056 -48.9369 47.2794
RightForeArm  78.6616 4.65614 1.26151
RightHand  0.324586 5.33819 3.19899
LeftUpLeg  1.50474 0.692031 1.07929
LeftLeg  -1.83596 14.625 -1.36461
LeftFoot  -0.731675 0.0803312 -0.831547
LeftToes  4.76857e-008 1.46588e-008 1.31384e-009
112
root  -2.55898 40.9789 1.77914 173.925 -88.6725 -172.395
RightUpLeg  2.36098 -0.830792 -1.44554
RightLeg  -2.78507 -15.8666 0.537961
RightFoot  0.0112708 -0.339697 3.42521
RightToes  -3.10678e-008 1.75238e-005 3.56266e-009
Spine  -3.3453 -0.354242 -0.0495297
Spine1  4.24121 -0.676852 1.29416
HEad  -10.6809 -1.90791 0.93336
LeftShoulder1  1.04492 -0.337123 -20.7942
LeftArm  25.9007 -86.9026 -93.841
LeftForeArm  83.9982 -11.7641 1.51786
LeftHand  -1.24793 -4.34163 15.1108
RightShoulder  5.12697 10.2431 31.3758
RightArm  -38.4889 -54.1951 48.575
RightForeArm  78.7852 4.81683 0.925907
RightHand  0.396434 5.021 4.10565
LeftUpLeg  1.67185 0.730614 1.00029
LeftLeg  -1.84274 15.3225 -1.44798
LeftFoot  -0.815886 0.0827748 -0.851419
LeftToes  4.76857e-008 1.46588e-008 1.31384e-009
113
root  -2.58123 40.978 1.78743 172.517 -87.9488 -171.05
RightUpLeg  2.36898 -0.689943 -1.31792
RightLeg  -2.77441 -15.289 0.457214
RightFoot  0.0446502 -0.340052 3.43337
RightToes  -3.10678e-008 1.75238e-005 3.56266e-009
Spine  -3.00845 -0.163788 -0.178375
Spine1  4.00794 -0.571873 1.7531
HEad  -10.6189 -1.17695 0.436594
LeftShoulder1  0.848207 0.388456 -20.7769
LeftArm  99.8053 -89.6655 -165.723
LeftForeArm  82.4123 -12.7063 1.14797
LeftHand  -1.25245 -4.38111 15.0992
RightShoulder  5.21816 10.4825 31.3884
RightArm  -39.8209 -56.8506 49.432
RightForeArm  81.8645 4.63115 0.278169
RightHand  0.406788 5.14374 4.16854
LeftUpLeg  1.72619 0.91523 1.14203
LeftLeg  -1.56705 15.8289 -1.45735
LeftFoot  -1.06572 0.0842582 -0.842837
LeftToes  4.76857e-008 1.46588e-008 1.31384e-009
114
root  -2.58236 40.9773 1.78511 170.532 -87.8272 -169.026
RightUpLeg  2.39221 -0.614946 -1.21775
RightLeg  -2.92067 -15.2673 0.503269
RightFoot  0.114643 -0.343355 3.49158
RightToes  -3.10678e-008 1.75238e-005 3.56266e-009
Spine  -3.12827 0.0354685 -0.354039
Spine1  4.06535 -0.438055 2.12162
HEad  -10.2606 -1.40518 0.562895
LeftShoulder1  0.725417 0.795555 -20.3238
LeftArm  -170.508 -89.0724 104.96
LeftForeArm  80.8901 -12.6672 1.2116
LeftHand  -1.2119 -3.91244 15.3264
RightShoulder  5.13391 10.2873 31.3034
RightArm  -40.0937 -57.3677 50.0037
RightForeArm  81.9032 4.90984 0.396921
RightHand  0.386713 5.24289 3.88483
LeftUpLeg  1.62758 0.970743 1.23849
LeftLeg  -1.4123 15.8749 -1.40128
LeftFoot  -1.13134 0.0848237 -0.81155
LeftToes  4.76857e-008 1.46588e-008 1.31384e-009
115
root  -2.5799 40.9768 1.76687 170.852 -88.1054 -169.327
RightUpLeg  2.40562 -0.663705 -1.24213
RightLeg  -2.92508 -15.4922 0.529794
RightFoot  0.0636644 -0.331518 3.31803
RightToes  -3.10678e-008 1.75238e-005 3.56266e-009
Spine  -3.36002 0.169905 -1.40434
Spine1  4.07048 -0.543496 3.5874
HEad  -9.95933 -1.53378 0.175443
LeftShoulder1  0.703037 0.8986 -20.5272
LeftArm  -72.7628 -89.3091 7.39118
LeftForeArm  80.2807 -12.7298 0.858644
LeftHand  -1.20117 -3.8427 15.3062
RightShoulder  4.85525 9.84781 30.4338
RightArm  -39.6495 -56.0784 50.4332
RightForeArm  79.424 5.44651 0.948186
RightHand  0.327585 4.34658 3.61066
LeftUpLeg  1.60916 0.94581 1.21944
LeftLeg  -1.47361 15.6335 -1.42155
LeftFoot  -1.13075 0.0954759 -0.933679
LeftToes  4.76857e-008 1.46588e-008 1.31384e-009
116
root  -2.56366 40.9764 1.73441 161.715 -88.8898 -160.266
RightUpLeg  2.63265 -0.757109 -1.25378
RightLeg  -3.08062 -16.1732 0.660901
RightFoot  0.0532262 -0.325275 3.27731
RightToes  -3.10678e-008 1.75238e-005 3.56266e-009
Spine  -3.74591 0.121849 -2.47352
Spine1  4.40371 -0.82741 4.99114
HEad  -9.53553 -1.94241 -0.357868
LeftShoulder1  0.749753 0.755607 -20.8488
LeftArm  -20.8539 -87.0626 -44.9139
LeftForeArm  80.8011 -12.3669 0.615433
LeftHand  -1.24945 -4.29363 15.1921
RightShoulder  4.56597 9.27985 29.782
RightArm  -39.3058 -52.351 50.5158
RightForeArm  77.3954 5.32854 0.931729
RightHand  0.49989 5.23185 5.15025
LeftUpLeg  1.64072 0.928494 1.25307
LeftLeg  -1.57446 14.8645 -1.43648
LeftFoot  -1.08607 0.109247 -1.10602
LeftToes  4.76857e-008 1.46588e-008 1.31384e-009
